<?xml version="1.0" encoding="UTF-8"?>
<svg xmlns="http://www.w3.org/2000/svg" xmlns:xlink="http://www.w3.org/1999/xlink" width="210px" height="210px" viewBox="0 0 210 210" version="1.1">
    <!-- Generator: Sketch 53.2 (72643) - https://sketchapp.com -->
    <title>Made in USA</title>
    <desc>Created with Sketch.</desc>
    <defs>
        <polygon id="path-1" points="0 144.941176 159.334588 144.941176 159.334588 0.173176471 0 0.173176471"/>
    </defs>
    <g id="Made-in-USA" stroke="none" stroke-width="1" fill-rule="evenodd">
        <g id="color-1" transform="translate(25.000000, 32.000000)">
            <polygon points="62.1453176 0.946823529 62.1453176 10.4809412 75.5495529 10.4809412 75.5495529 8.43011765 65.4714353 8.43011765 65.4714353 6.52423529 74.9735529 6.52423529 74.9735529 4.67858824 65.4714353 4.67858824 65.4714353 2.95058824 75.4780235 2.95058824 75.4780235 0.946823529"/>
            <path d="M29.1481412,0.941741176 L22.7792,10.4758588 L26.6446118,10.4758588 L27.7090824,8.81091765 L36.1486118,8.81091765 L37.2121412,10.4758588 L41.0521412,10.4758588 L34.7763765,0.941741176 L29.1481412,0.941741176 Z M31.4455529,2.92009412 L32.4375529,2.92009412 L35.0276706,6.96527059 L28.8554353,6.96527059 L31.4455529,2.92009412 Z"/>
            <g id="Group-23" transform="translate(0.000000, 0.768000)">
                <path d="M55.7205647,6.38776471 C55.6433882,6.66541176 55.4946824,6.94776471 55.2170353,7.13788235 C54.9450353,7.32329412 54.5017412,7.40047059 54.1525647,7.43623529 C53.4438588,7.51341176 52.7040941,7.51341176 51.9888,7.51341176 L46.5356235,7.51341176 L46.5346824,7.51341176 L46.5346824,2.33223529 L46.5356235,2.33223529 L51.9520941,2.33223529 L51.9530353,2.33223529 C52.7144471,2.33223529 53.5511529,2.31152941 54.3022118,2.40941176 C54.6928,2.45552941 55.0476235,2.57411765 55.3196235,2.80564706 C55.5511529,3.01552941 55.6744471,3.30352941 55.7412706,3.58117647 C55.8495059,4.03388235 55.8551529,4.52705882 55.8551529,4.98447059 C55.8551529,5.44188235 55.8448,5.94070588 55.7205647,6.38776471 M59.1125647,3.01082353 C59.0673882,2.64564706 58.9855059,2.28047059 58.8396235,1.93129412 C58.4810353,1.04752941 57.7008,0.548705882 56.5638588,0.364235294 C56.0650353,0.281411765 55.5615059,0.230588235 55.0579765,0.209882353 C54.0255059,0.168470588 52.9873882,0.178823529 51.9539765,0.178823529 L43.2113882,0.178823529 L43.2113882,9.71294118 L51.9643294,9.71294118 C52.9610353,9.71294118 53.9577412,9.71858824 54.9563294,9.66682353 C55.5200941,9.63576471 56.0923294,9.57458824 56.6466824,9.47670588 C57.7158588,9.28658824 58.4302118,8.80376471 58.7850353,7.97552941 C58.9497412,7.59058824 59.0466824,7.184 59.0993882,6.77835294 C59.1859765,6.12047059 59.1859765,5.45223529 59.1859765,4.79435294 C59.1850353,4.20329412 59.1850353,3.60188235 59.1125647,3.01082353" id="color-1"/>
                <polygon id="color-1" points="3.23802353 2.33223529 4.21967059 2.33223529 8.89731765 9.71294118 11.7914353 9.71294118 16.4681412 2.33223529 17.4036706 2.33223529 17.3114353 9.71294118 20.6356706 9.71294118 20.6356706 0.178823529 14.1500235 0.178823529 10.3363765 6.78305882 6.52272941 0.178823529 0.000376470588 0.178823529 0.000376470588 9.71294118 3.32555294 9.71294118"/>
                <polygon id="color-1" points="117.157176 9.46136471 120.538824 9.46136471 120.538824 2.50701176 125.770824 2.50701176 125.770824 0.425129412 111.919529 0.425129412 111.919529 2.50701176 117.157176 2.50701176"/>
                <polygon id="color-1" points="92.5266824 2.49675294 93.2005647 2.49675294 99.3784471 9.46145882 105.320094 9.46145882 105.320094 0.425223529 102.051388 0.425223529 102.138918 7.39557647 101.485741 7.39557647 95.3285647 0.425223529 89.3351529 0.425223529 89.3351529 9.46145882 92.6038588 9.46145882"/>
                <polygon id="color-1" points="131.363106 6.08950588 139.8224 6.08950588 139.8224 9.46174118 143.204988 9.46174118 143.204988 0.425505882 139.8224 0.425505882 139.8224 3.77138824 131.363106 3.77138824 131.363106 0.425505882 127.980518 0.425505882 127.980518 9.46174118 131.363106 9.46174118"/>
                <mask id="mask-2" fill="white">
                    <use xlink:href="#path-1"/>
                </mask>
                <g id="color-1"/>
                <polygon id="color-1" mask="url(#mask-2)" points="82.9157647 9.46164706 86.2983529 9.46164706 86.2983529 0.425411765 82.9157647 0.425411765"/>
                <polygon id="color-1" mask="url(#mask-2)" points="158.948518 7.51830588 149.399341 7.51830588 149.399341 5.71407059 158.403576 5.71407059 158.403576 3.96724706 149.399341 3.96724706 149.399341 2.32677647 158.876988 2.32677647 158.876988 0.4256 146.242635 0.4256 146.242635 9.46089412 158.948518 9.46089412"/>
                <path d="M122.003671,129.095059 L129.312847,114.189647 L131.614965,114.189647 L138.924141,129.095059 L122.003671,129.095059 Z M139.4992,105.056471 L121.566024,105.056471 L101.450259,144.349647 L114.649318,144.349647 L117.897318,137.694588 L142.974024,137.694588 L146.222024,144.349647 L159.334494,144.349647 L139.4992,105.056471 Z" id="color-1" mask="url(#mask-2)"/>
                <path d="M97.2555294,122.002259 C96.032,121.262494 94.3924706,120.774024 92.3265882,120.517082 C90.2607059,120.249788 86.1637647,120.022965 80.0423529,119.838494 C72.7745882,119.602259 68.6936471,119.366024 67.8042353,119.119435 C66.7303529,118.810729 66.1910588,117.962729 66.1910588,116.590494 C66.1910588,115.145788 66.7350588,114.272376 67.8042353,113.947671 C68.8743529,113.634259 71.8701176,113.4752 76.7736471,113.4752 C80.8489412,113.4752 83.5275294,113.516612 84.7764706,113.604141 C86.0414118,113.696376 86.9204706,113.8912 87.424,114.1952 C87.8296471,114.452141 88.1016471,114.775906 88.2362353,115.176847 C88.3792941,115.577788 88.4668235,116.3232 88.5025882,117.422494 L99.7025882,117.422494 L99.7025882,115.577788 C99.7025882,112.015435 99.0597647,109.471435 97.7590588,107.960847 C96.464,106.459671 94.0743529,105.462024 90.5948235,104.958494 C88.3331765,104.634729 84.4216471,104.465318 78.8442353,104.465318 C70.9609412,104.465318 65.7383529,104.665788 63.1576471,105.056376 C60.5938824,105.446965 58.6870588,106.361788 57.4428235,107.775435 C55.8136471,109.600376 54.9967059,112.735435 54.9967059,117.1712 C54.9967059,121.128847 55.7101176,123.950494 57.1294118,125.646494 C57.9623529,126.6592 59.1284706,127.394259 60.6192941,127.846024 C62.1044706,128.298729 64.2428235,128.570729 67.0183529,128.668612 C68.4423529,128.704376 71.5152941,128.833318 76.2343529,129.069553 C80.8442353,129.295435 83.8663529,129.414024 85.2903529,129.414024 C87.1407059,129.454494 88.3642353,129.670965 88.9703529,130.061553 C89.5670588,130.456847 89.8701176,131.243671 89.8701176,132.410729 C89.8701176,134.0192 89.4437647,135.0112 88.5901176,135.375435 C88.0197647,135.633318 87.2432941,135.782024 86.2672941,135.828141 C85.28,135.874259 82.3510588,135.905318 77.4682353,135.926024 C72.8112941,135.884612 70.0461176,135.833788 69.1614118,135.766965 C68.2776471,135.700141 67.5689412,135.483671 67.008,135.109082 C66.2324706,134.549082 65.8522353,133.284141 65.872,131.3312 L54.6832941,131.3312 L54.6371765,133.181553 C54.6371765,136.007906 54.9148235,138.110494 55.4541176,139.493082 C56.0047059,140.875671 56.9863529,141.985318 58.4103529,142.838965 C59.7825882,143.625788 61.8324706,144.175435 64.5515294,144.478494 C67.2752941,144.781553 71.4955294,144.941553 77.1905882,144.941553 C84.0056471,144.941553 88.6625882,144.822965 91.1651765,144.597082 C93.4992941,144.359906 95.3082353,143.918494 96.5985882,143.270965 C97.8889412,142.623435 98.8856471,141.631435 99.616,140.305318 C100.571294,138.495435 101.055059,135.746259 101.055059,132.045553 C101.055059,129.218259 100.771765,127.054494 100.191059,125.553318 C99.6254118,124.042729 98.6381176,122.865318 97.2555294,122.002259" id="color-1" mask="url(#mask-2)"/>
                <path d="M39.3456,123.122635 C39.3456,124.253929 39.2938353,125.703341 39.2016,127.481224 C39.1140706,129.208282 38.9700706,130.426165 38.8006588,131.141459 C38.6199529,131.850165 38.3168941,132.456282 37.8905412,132.960753 C37.2439529,133.664753 36.1437176,134.147576 34.5907765,134.383812 C33.0500706,134.631341 30.2679529,134.748988 26.2594824,134.748988 C21.3201882,134.748988 18.0354824,134.512753 16.4166588,134.028988 C14.7921882,133.551812 13.8265412,132.539106 13.5328941,130.996518 C13.3173647,129.897224 13.1724235,127.276047 13.1168941,123.122635 L13.1168941,105.056753 L1.58277647,105.056753 L1.58277647,123.117929 C1.61948235,127.717459 1.6656,130.657694 1.73242353,131.922635 C1.79830588,133.186635 1.95830588,134.600282 2.21524706,136.152282 C2.90889412,140.218165 5.27877647,142.751812 9.33901176,143.754165 C11.1743059,144.196518 13.3277176,144.504282 15.8105412,144.679341 C18.2933647,144.848753 21.8293647,144.936282 26.4091294,144.936282 C32.4994824,144.936282 36.8834824,144.776282 39.5564235,144.473224 C42.2190118,144.170165 44.2848941,143.573459 45.7446588,142.690635 C48.3197176,141.1584 49.8463059,138.7424 50.3037176,135.442635 C50.5663059,133.500047 50.7564235,129.3984 50.8900706,123.122635 L50.8900706,105.056753 L39.3456,105.056753 L39.3456,123.122635 Z" id="color-1" mask="url(#mask-2)"/>
                <path d="M59.2977882,19.9824941 L59.9867294,22.0897882 L58.1975529,20.7843765 L56.4036706,22.0897882 L57.0916706,19.9824941 L55.2987294,18.6874353 L57.5133176,18.6921412 L58.1966118,16.5801412 L58.8761412,18.6921412 L61.0907294,18.6874353 L59.2977882,19.9824941 Z M59.2977882,28.9980235 L59.9867294,31.1053176 L58.1975529,29.7942588 L56.4036706,31.1053176 L57.0916706,28.9980235 L55.2987294,27.6973176 L57.5133176,27.7029647 L58.1966118,25.5900235 L58.8761412,27.7029647 L61.0907294,27.6973176 L59.2977882,28.9980235 Z M59.2977882,38.0079059 L59.9867294,40.1152 L58.1975529,38.8097882 L56.4036706,40.1152 L57.0916706,38.0079059 L55.2987294,36.7072 L57.5133176,36.7128471 L58.1966118,34.5999059 L58.8761412,36.7128471 L61.0907294,36.7072 L59.2977882,38.0079059 Z M59.2977882,47.0177882 L59.9867294,49.1250824 L58.1975529,47.8196706 L56.4036706,49.1250824 L57.0916706,47.0177882 L55.2987294,45.7170824 L57.5133176,45.7227294 L58.1966118,43.6097882 L58.8761412,45.7227294 L61.0907294,45.7170824 L59.2977882,47.0177882 Z M59.9867294,58.1349647 L58.1975529,56.8295529 L56.4036706,58.1349647 L57.0916706,56.0276706 L55.2987294,54.7279059 L57.5133176,54.7326118 L58.1966118,52.6253176 L58.8761412,54.7326118 L61.0907294,54.7279059 L59.2968471,56.0276706 L59.9867294,58.1349647 Z M53.0276706,52.2140235 L51.2384941,53.5250824 L51.9274353,51.4177882 L50.1344941,50.1170824 L52.3490824,50.1217882 L53.0276706,48.0097882 L53.7109647,50.1217882 L55.9264941,50.1170824 L54.1326118,51.4177882 L54.8206118,53.5250824 L53.0276706,52.2140235 Z M49.3533176,58.1349647 L47.5641412,56.8295529 L45.7702588,58.1349647 L46.4582588,56.0276706 L44.6643765,54.7279059 L46.8799059,54.7326118 L47.5632,52.6253176 L48.2417882,54.7326118 L50.4563765,54.7279059 L48.6624941,56.0276706 L49.3533176,58.1349647 Z M42.3989647,52.2140235 L40.6050824,53.5250824 L41.2930824,51.4177882 L39.4992,50.1170824 L41.7137882,50.1217882 L42.3980235,48.0097882 L43.0766118,50.1217882 L45.2912,50.1170824 L43.4982588,51.4177882 L44.1853176,53.5250824 L42.3989647,52.2140235 Z M38.7189647,58.1349647 L36.9288471,56.8295529 L35.1349647,58.1349647 L35.8239059,56.0276706 L34.0290824,54.7279059 L36.2446118,54.7326118 L36.9279059,52.6253176 L37.6074353,54.7326118 L39.8229647,54.7279059 L38.0281412,56.0276706 L38.7189647,58.1349647 Z M31.7646118,52.2140235 L29.9707294,53.5250824 L30.6587294,51.4177882 L28.8657882,50.1170824 L31.0803765,50.1217882 L31.7636706,48.0097882 L32.4432,50.1217882 L34.6634353,50.1170824 L32.8639059,51.4177882 L33.5528471,53.5250824 L31.7646118,52.2140235 Z M28.0846118,58.1349647 L26.2954353,56.8295529 L24.5015529,58.1349647 L25.1904941,56.0276706 L23.3956706,54.7279059 L25.6112,54.7326118 L26.2944941,52.6253176 L26.9730824,54.7326118 L29.1942588,54.7279059 L27.3956706,56.0276706 L28.0846118,58.1349647 Z M21.1302588,52.2140235 L19.3363765,53.5250824 L20.0243765,51.4177882 L18.2304941,50.1170824 L20.4460235,50.1217882 L21.1293176,48.0097882 L21.8079059,50.1217882 L24.0281412,50.1170824 L22.2295529,51.4177882 L22.9184941,53.5250824 L21.1302588,52.2140235 Z M17.4493176,58.1349647 L15.6610824,56.8295529 L13.8662588,58.1349647 L14.5552,56.0276706 L12.7613176,54.7279059 L14.9759059,54.7326118 L15.6601412,52.6253176 L16.3387294,54.7326118 L18.5589647,54.7279059 L16.7613176,56.0276706 L17.4493176,58.1349647 Z M10.4959059,52.2140235 L8.70202353,53.5250824 L9.39096471,51.4177882 L7.59614118,50.1170824 L9.81167059,50.1217882 L10.4949647,48.0097882 L11.1744941,50.1217882 L13.3956706,50.1170824 L11.5952,51.4177882 L12.2850824,53.5250824 L10.4959059,52.2140235 Z M6.81590588,58.1349647 L5.02672941,56.8295529 L3.23378824,58.1349647 L3.92084706,56.0276706 L2.12790588,54.7279059 L4.34249412,54.7326118 L5.02578824,52.6253176 L5.70531765,54.7326118 L7.92555294,54.7279059 L6.12696471,56.0276706 L6.81590588,58.1349647 Z M4.34343529,45.7227294 L5.02672941,43.6097882 L5.70625882,45.7227294 L7.92649412,45.7170824 L6.12696471,47.0177882 L6.81590588,49.1250824 L5.02672941,47.8196706 L3.23378824,49.1250824 L3.92084706,47.0177882 L2.12790588,45.7170824 L4.34343529,45.7227294 Z M4.34343529,36.7128471 L5.02672941,34.5999059 L5.70625882,36.7128471 L7.92649412,36.7072 L6.12696471,38.0079059 L6.81590588,40.1152 L5.02672941,38.8097882 L3.23378824,40.1152 L3.92084706,38.0079059 L2.12790588,36.7072 L4.34343529,36.7128471 Z M4.34343529,27.7029647 L5.02672941,25.5900235 L5.70625882,27.7029647 L7.92649412,27.6973176 L6.12696471,28.9980235 L6.81590588,31.1053176 L5.02672941,29.7942588 L3.23378824,31.1053176 L3.92084706,28.9980235 L2.12790588,27.6973176 L4.34343529,27.7029647 Z M4.34343529,18.6921412 L5.02672941,16.5801412 L5.70625882,18.6921412 L7.92649412,18.6874353 L6.12696471,19.9824941 L6.81590588,22.0897882 L5.02672941,20.7843765 L3.23378824,22.0897882 L3.92084706,19.9824941 L2.12790588,18.6874353 L4.34343529,18.6921412 Z M10.4959059,21.0206118 L11.1744941,23.1335529 L13.3956706,23.1279059 L11.5952,24.4286118 L12.2850824,26.5359059 L10.4959059,25.2248471 L8.70202353,26.5359059 L9.39096471,24.4286118 L7.59614118,23.1279059 L9.81167059,23.1335529 L10.4959059,21.0206118 Z M14.9777882,18.6921412 L15.6620235,16.5801412 L16.3396706,18.6921412 L18.5608471,18.6874353 L16.7613176,19.9824941 L17.4502588,22.0897882 L15.6620235,20.7843765 L13.8672,22.0897882 L14.5561412,19.9824941 L12.7622588,18.6874353 L14.9777882,18.6921412 Z M21.1302588,21.0206118 L21.8088471,23.1335529 L24.0290824,23.1279059 L22.2295529,24.4286118 L22.9194353,26.5359059 L21.1302588,25.2248471 L19.3363765,26.5359059 L20.0243765,24.4286118 L18.2304941,23.1279059 L20.4460235,23.1335529 L21.1302588,21.0206118 Z M25.6121412,18.6921412 L26.2954353,16.5801412 L26.9740235,18.6921412 L29.1952,18.6874353 L27.3956706,19.9824941 L28.0846118,22.0897882 L26.2954353,20.7843765 L24.5015529,22.0897882 L25.1904941,19.9824941 L23.3956706,18.6874353 L25.6121412,18.6921412 Z M31.7646118,21.0206118 L32.4432,23.1335529 L34.6634353,23.1279059 L32.8639059,24.4286118 L33.5528471,26.5359059 L31.7646118,25.2248471 L29.9707294,26.5359059 L30.6587294,24.4286118 L28.8657882,23.1279059 L31.0803765,23.1335529 L31.7646118,21.0206118 Z M36.2464941,18.6921412 L36.9297882,16.5801412 L37.6083765,18.6921412 L39.8239059,18.6874353 L38.0290824,19.9824941 L38.7189647,22.0897882 L36.9288471,20.7843765 L35.1349647,22.0897882 L35.8239059,19.9824941 L34.0290824,18.6874353 L36.2464941,18.6921412 Z M42.3989647,21.0206118 L43.0775529,23.1335529 L45.2921412,23.1279059 L43.4982588,24.4286118 L44.1862588,26.5359059 L42.3980235,25.2248471 L40.6041412,26.5359059 L41.2921412,24.4286118 L39.4982588,23.1279059 L41.7128471,23.1335529 L42.3989647,21.0206118 Z M46.8808471,18.6921412 L47.5641412,16.5801412 L48.2427294,18.6921412 L50.4573176,18.6874353 L48.6634353,19.9824941 L49.3523765,22.0897882 L47.5632,20.7843765 L45.7693176,22.0897882 L46.4573176,19.9824941 L44.6634353,18.6874353 L46.8808471,18.6921412 Z M16.7613176,28.9980235 L17.4493176,31.1053176 L15.6610824,29.7942588 L13.8662588,31.1053176 L14.5552,28.9980235 L12.7613176,27.6973176 L14.9759059,27.7029647 L15.6601412,25.5900235 L16.3387294,27.7029647 L18.5589647,27.6973176 L16.7613176,28.9980235 Z M17.4493176,40.1152 L15.6610824,38.8097882 L13.8662588,40.1152 L14.5552,38.0079059 L12.7613176,36.7072 L14.9759059,36.7128471 L15.6601412,34.5999059 L16.3387294,36.7128471 L18.5589647,36.7072 L16.7613176,38.0079059 L17.4493176,40.1152 Z M24.0281412,32.1227294 L22.2295529,33.4234353 L22.9184941,35.5307294 L21.1293176,34.2243765 L19.3354353,35.5307294 L20.0234353,33.4234353 L18.2295529,32.1227294 L20.4450824,32.1274353 L21.1283765,30.0210824 L21.8069647,32.1274353 L24.0281412,32.1227294 Z M27.3956706,28.9980235 L28.0846118,31.1053176 L26.2954353,29.7942588 L24.5015529,31.1053176 L25.1904941,28.9980235 L23.3956706,27.6973176 L25.6112,27.7029647 L26.2944941,25.5900235 L26.9730824,27.7029647 L29.1942588,27.6973176 L27.3956706,28.9980235 Z M28.0846118,40.1152 L26.2954353,38.8097882 L24.5015529,40.1152 L25.1904941,38.0079059 L23.3956706,36.7072 L25.6112,36.7128471 L26.2944941,34.5999059 L26.9730824,36.7128471 L29.1942588,36.7072 L27.3956706,38.0079059 L28.0846118,40.1152 Z M34.6634353,32.1227294 L32.8639059,33.4234353 L33.5528471,35.5307294 L31.7636706,34.2243765 L29.9707294,35.5307294 L30.6577882,33.4234353 L28.8648471,32.1227294 L31.0794353,32.1274353 L31.7627294,30.0210824 L32.4422588,32.1274353 L34.6634353,32.1227294 Z M38.0290824,28.9980235 L38.7189647,31.1053176 L36.9288471,29.7942588 L35.1349647,31.1053176 L35.8239059,28.9980235 L34.0290824,27.6973176 L36.2446118,27.7029647 L36.9279059,25.5900235 L37.6074353,27.7029647 L39.8229647,27.6973176 L38.0290824,28.9980235 Z M38.7189647,40.1152 L36.9288471,38.8097882 L35.1349647,40.1152 L35.8239059,38.0079059 L34.0290824,36.7072 L36.2446118,36.7128471 L36.9279059,34.5999059 L37.6074353,36.7128471 L39.8229647,36.7072 L38.0281412,38.0079059 L38.7189647,40.1152 Z M45.2921412,32.1227294 L43.4982588,33.4234353 L44.1862588,35.5307294 L42.3980235,34.2243765 L40.6041412,35.5307294 L41.2921412,33.4234353 L39.4982588,32.1227294 L41.7128471,32.1274353 L42.3970824,30.0210824 L43.0756706,32.1274353 L45.2921412,32.1227294 Z M49.3533176,40.1152 L47.5641412,38.8097882 L45.7702588,40.1152 L46.4582588,38.0079059 L44.6643765,36.7072 L46.8799059,36.7128471 L47.5632,34.5999059 L48.2417882,36.7128471 L50.4563765,36.7072 L48.6624941,38.0079059 L49.3533176,40.1152 Z M49.3533176,31.1053176 L47.5641412,29.7942588 L45.7702588,31.1053176 L46.4582588,28.9980235 L44.6643765,27.6973176 L46.8799059,27.7029647 L47.5632,25.5900235 L48.2417882,27.7029647 L50.4563765,27.6973176 L48.6624941,28.9980235 L49.3533176,31.1053176 Z M7.59614118,32.1227294 L9.81167059,32.1274353 L10.4949647,30.0210824 L11.1744941,32.1274353 L13.3956706,32.1227294 L11.5952,33.4234353 L12.2850824,35.5307294 L10.4949647,34.2243765 L8.70108235,35.5307294 L9.39002353,33.4234353 L7.59614118,32.1227294 Z M12.2850824,44.5255529 L10.4949647,43.2192 L8.70108235,44.5255529 L9.39002353,42.4173176 L7.59614118,41.1175529 L9.81072941,41.1222588 L10.4940235,39.0149647 L11.1735529,41.1222588 L13.3947294,41.1175529 L11.5952,42.4173176 L12.2850824,44.5255529 Z M17.4493176,49.1250824 L15.6610824,47.8196706 L13.8662588,49.1250824 L14.5552,47.0177882 L12.7613176,45.7170824 L14.9759059,45.7227294 L15.6601412,43.6097882 L16.3387294,45.7227294 L18.5589647,45.7170824 L16.7613176,47.0177882 L17.4493176,49.1250824 Z M22.9194353,44.5255529 L21.1302588,43.2192 L19.3363765,44.5255529 L20.0243765,42.4173176 L18.2304941,41.1175529 L20.4460235,41.1222588 L21.1293176,39.0149647 L21.8079059,41.1222588 L24.0281412,41.1175529 L22.2295529,42.4173176 L22.9194353,44.5255529 Z M28.0846118,49.1250824 L26.2954353,47.8196706 L24.5015529,49.1250824 L25.1904941,47.0177882 L23.3956706,45.7170824 L25.6112,45.7227294 L26.2944941,43.6097882 L26.9730824,45.7227294 L29.1942588,45.7170824 L27.3956706,47.0177882 L28.0846118,49.1250824 Z M33.5528471,44.5255529 L31.7636706,43.2192 L29.9707294,44.5255529 L30.6577882,42.4173176 L28.8648471,41.1175529 L31.0794353,41.1222588 L31.7627294,39.0149647 L32.4422588,41.1222588 L34.6624941,41.1175529 L32.8639059,42.4173176 L33.5528471,44.5255529 Z M38.7189647,49.1250824 L36.9288471,47.8196706 L35.1349647,49.1250824 L35.8239059,47.0177882 L34.0290824,45.7170824 L36.2446118,45.7227294 L36.9279059,43.6097882 L37.6074353,45.7227294 L39.8229647,45.7170824 L38.0281412,47.0177882 L38.7189647,49.1250824 Z M44.1872,44.5255529 L42.3989647,43.2192 L40.6050824,44.5255529 L41.2930824,42.4173176 L39.4992,41.1175529 L41.7137882,41.1222588 L42.3980235,39.0149647 L43.0766118,41.1222588 L45.2912,41.1175529 L43.4982588,42.4173176 L44.1872,44.5255529 Z M49.3533176,49.1250824 L47.5641412,47.8196706 L45.7702588,49.1250824 L46.4582588,47.0177882 L44.6643765,45.7170824 L46.8799059,45.7227294 L47.5632,43.6097882 L48.2417882,45.7227294 L50.4563765,45.7170824 L48.6624941,47.0177882 L49.3533176,49.1250824 Z M54.8215529,44.5255529 L53.0276706,43.2192 L51.2384941,44.5255529 L51.9264941,42.4173176 L50.1335529,41.1175529 L52.3481412,41.1222588 L53.0267294,39.0149647 L53.7100235,41.1222588 L55.9255529,41.1175529 L54.1316706,42.4173176 L54.8215529,44.5255529 Z M54.8215529,35.5307294 L53.0276706,34.2243765 L51.2384941,35.5307294 L51.9264941,33.4234353 L50.1335529,32.1227294 L52.3481412,32.1274353 L53.0267294,30.0210824 L53.7100235,32.1274353 L55.9255529,32.1227294 L54.1316706,33.4234353 L54.8215529,35.5307294 Z M53.0276706,21.0206118 L53.7109647,23.1335529 L55.9264941,23.1279059 L54.1326118,24.4286118 L54.8215529,26.5359059 L53.0276706,25.2248471 L51.2384941,26.5359059 L51.9264941,24.4286118 L50.1335529,23.1279059 L52.3481412,23.1335529 L53.0276706,21.0206118 Z M159.333553,21.3443765 L159.333553,14.6573176 L63.1895529,14.6573176 L0.0309647059,14.6573176 L0.0309647059,60.0624941 L63.1895529,60.0624941 L159.333553,60.0624941 L159.333553,53.3707294 L63.1895529,53.3707294 L63.1895529,47.1570824 L159.333553,47.1570824 L159.333553,40.4643765 L63.1895529,40.4643765 L63.1895529,34.2507294 L159.333553,34.2507294 L159.333553,27.5580235 L63.1895529,27.5580235 L63.1895529,21.3443765 L159.333553,21.3443765 Z" id="color-1" mask="url(#mask-2)"/>
                <polygon id="color-1" mask="url(#mask-2)" points="0.0310588235 72.9628235 159.334588 72.9628235 159.334588 66.2710588 0.0310588235 66.2710588"/>
                <polygon id="color-1" mask="url(#mask-2)" points="0.0310588235 85.8691765 159.334588 85.8691765 159.334588 79.1774118 0.0310588235 79.1774118"/>
                <polygon id="color-1" mask="url(#mask-2)" points="0.0310588235 98.7698824 159.334588 98.7698824 159.334588 92.0781176 0.0310588235 92.0781176"/>
            </g>
        </g>
    </g>
<def><style type="text/css">        #color-1 {
            fill: #1dcef9 !important;
        }
        #color-2 {
            fill: #9D9D9D !important;
        }
        #color-3 {
            fill: #FFFFFF !important;
        }</style></def></svg>
