<?xml version="1.0" encoding="UTF-8"?>
<svg xmlns="http://www.w3.org/2000/svg" xmlns:xlink="http://www.w3.org/1999/xlink" width="210px" height="210px" viewBox="0 0 210 210" version="1.1">
    <!-- Generator: Sketch 53.2 (72643) - https://sketchapp.com -->
    <title>30 Day Guarantee</title>
    <desc>Created with Sketch.</desc>
    <defs>
        <polygon id="path-1" points="0 0.031 196.517 0.031 196.517 200.99991 0 200.99991"/>
    </defs>
    <g id="30-Day-Guarantee" stroke="none" stroke-width="1">
        <g id="color-1" transform="translate(7.000000, 4.000000)">
            <g transform="translate(0.000000, 0.969000)">
                <mask id="mask-2" fill="white">
                    <use xlink:href="#path-1"/>
                </mask>
                <g id="Clip-2"/>
                <path d="M192.1612,121.7979 C191.6642,123.9879 189.9822,125.8339 187.4212,127.0029 C177.8262,131.3819 172.1302,143.2599 174.7242,153.4779 C175.4072,156.1749 175.0352,158.6269 173.6702,160.3809 C172.3212,162.1109 170.0772,163.0669 167.3462,163.0669 L167.1002,163.0619 C166.9582,163.0619 166.8222,163.0559 166.6802,163.0559 C156.1452,163.0559 146.2612,171.1169 144.1752,181.4049 C143.3562,185.4299 140.8002,187.8269 137.3322,187.8269 C135.9832,187.8269 134.5742,187.4619 133.1432,186.7359 C130.1612,185.2219 126.7212,184.4249 123.1772,184.4249 C115.8372,184.4249 108.6892,187.8329 104.5282,193.3159 C102.8242,195.5599 100.6452,196.7999 98.4002,196.7999 C96.1622,196.7999 93.9882,195.5709 92.2792,193.3379 C88.1172,187.8869 80.9852,184.5069 73.6732,184.5069 C70.1072,184.5069 66.6342,185.3159 63.6412,186.8499 C62.2102,187.5819 60.7962,187.9529 59.4362,187.9529 C55.9792,187.9529 53.4232,185.5609 52.5992,181.5529 C50.4852,171.3019 40.6012,163.2749 30.0942,163.2749 C29.9302,163.2749 29.7712,163.2749 29.6082,163.2799 C29.5092,163.2799 29.4162,163.2859 29.3242,163.2859 C26.6102,163.2859 24.3702,162.3359 23.0272,160.6099 C21.6622,158.8619 21.2852,156.4159 21.9572,153.7129 C24.5182,143.4839 18.7842,131.6229 9.1722,127.2809 C6.6112,126.1179 4.9182,124.2769 4.4162,122.0879 C3.9132,119.8979 4.6292,117.5059 6.4262,115.3429 C13.1702,107.2389 13.1482,94.0669 6.3822,85.9789 C4.5742,83.8219 3.8532,81.4239 4.3502,79.2349 C4.8472,77.0499 6.5292,75.1989 9.0912,74.0299 C18.6852,69.6559 24.3872,57.7779 21.7872,47.5549 C21.1052,44.8519 21.4822,42.4049 22.8412,40.6469 C24.1902,38.9159 26.4292,37.9599 29.1542,37.9599 L29.4062,37.9599 C29.5482,37.9659 29.6892,37.9659 29.8262,37.9659 C40.3602,37.9659 50.2452,29.9049 52.3362,19.6169 C53.1562,15.5969 55.7112,13.1939 59.1842,13.1939 C60.5342,13.1939 61.9422,13.5599 63.3682,14.2869 C66.3492,15.7989 69.7952,16.5969 73.3342,16.5969 C80.6792,16.5969 87.8222,13.1889 91.9842,7.7059 C93.6872,5.4669 95.8612,4.2329 98.1112,4.2329 C100.3502,4.2329 102.5232,5.4619 104.2332,7.6949 C108.3942,13.1399 115.5262,16.5259 122.8382,16.5259 C126.4052,16.5259 129.8782,15.7169 132.8762,14.1829 C134.3072,13.4509 135.7262,13.0799 137.0812,13.0799 C140.5372,13.0799 143.0942,15.4719 143.9182,19.4799 C146.0372,29.7309 155.9162,37.7579 166.4172,37.7579 C166.5812,37.7579 166.7402,37.7579 166.9042,37.7529 C167.0022,37.7529 167.0952,37.7469 167.1872,37.7469 C169.9022,37.7469 172.1352,38.6919 173.4842,40.4229 C174.8492,42.1709 175.2262,44.6169 174.5552,47.3149 C171.9932,57.5439 177.7272,69.4049 187.3332,73.7519 C189.9002,74.9099 191.5872,76.7559 192.0902,78.9449 C192.5922,81.1299 191.8822,83.5269 190.0802,85.6949 C183.3362,93.7939 183.3522,106.9659 190.1292,115.0539 C191.9322,117.2109 192.6582,119.6079 192.1612,121.7979 M193.3512,112.3559 C187.8362,105.7639 187.8192,94.9729 193.3192,88.3709 C198.8122,81.7629 196.9072,73.4629 189.0762,69.9229 C181.2442,66.3799 176.5482,56.6639 178.6342,48.3309 C180.7202,39.9969 175.4012,33.3459 166.8112,33.5529 C158.2262,33.7609 149.7722,27.0439 148.0362,18.6279 C146.2992,10.2129 138.6212,6.5269 130.9702,10.4419 C123.3192,14.3579 112.7962,11.9709 107.5752,5.1449 C102.3602,-1.6811 93.8402,-1.6761 88.6472,5.1719 C83.4532,12.0199 72.9352,14.4339 65.2742,10.5459 C57.6122,6.6579 49.9392,10.3659 48.2302,18.7869 C46.5202,27.2079 38.0942,33.9519 29.5042,33.7719 C20.9142,33.5909 15.6112,40.2589 17.7242,48.5879 C19.8322,56.9159 15.1692,66.6469 7.3492,70.2129 C-0.4718,73.7789 -2.3498,82.0859 3.1652,88.6719 C8.6812,95.2569 8.7032,106.0539 3.2032,112.6559 C-2.2898,119.2579 -0.3838,127.5589 7.4472,131.1039 C15.2782,134.6419 19.9742,144.3629 17.8892,152.6959 C15.8022,161.0359 21.1212,167.6869 29.7112,167.4799 C38.3022,167.2719 46.7502,173.9839 48.4872,182.4039 C50.2232,190.8149 57.9012,194.4949 65.5522,190.5849 C73.1982,186.6699 83.7262,189.0619 88.9422,195.8879 C94.1572,202.7139 102.6712,202.7029 107.8652,195.8609 C113.0582,189.0119 123.5762,186.5929 131.2382,190.4819 C138.9052,194.3699 146.5722,190.6619 148.2822,182.2409 C149.9912,173.8249 158.4172,167.0809 167.0072,167.2609 C175.5982,167.4419 180.8952,160.7739 178.7872,152.4449 C176.6732,144.1169 181.3432,134.3859 189.1682,130.8139 C196.9892,127.2539 198.8672,118.9419 193.3512,112.3559" id="Fill-1" mask="url(#mask-2)"/>
            </g>
            <path d="M171.442,107.1975 C171.404,107.6615 171.016,108.0165 170.557,108.0165 C170.536,108.0165 170.514,108.0165 170.486,108.0105 C169.995,107.9725 169.629,107.5475 169.667,107.0555 C169.809,105.2155 169.88,103.3585 169.88,101.4795 C169.88,100.2675 169.853,99.0605 169.793,97.8645 C169.771,97.3735 170.148,96.9585 170.634,96.9365 C171.125,96.9145 171.54,97.2915 171.567,97.7825 C171.628,99.0065 171.66,100.2455 171.66,101.4855 C171.66,103.4075 171.589,105.3135 171.442,107.1975 M170.781,112.8715 C170.486,114.7665 170.12,116.6395 169.678,118.4805 C169.58,118.8895 169.214,119.1625 168.81,119.1625 C168.75,119.1685 168.684,119.1625 168.613,119.1465 C168.132,119.0315 167.838,118.5515 167.952,118.0755 C168.379,116.2735 168.739,114.4495 169.023,112.5985 C169.099,112.1125 169.552,111.7845 170.039,111.8555 C170.525,111.9325 170.858,112.3855 170.781,112.8715 M168.138,123.9955 C167.554,125.8195 166.893,127.6165 166.172,129.3695 C166.03,129.7135 165.697,129.9205 165.348,129.9205 C165.244,129.9205 165.129,129.8995 165.02,129.8555 C164.567,129.6695 164.348,129.1505 164.534,128.6975 C165.238,126.9825 165.877,125.2295 166.451,123.4495 C166.598,122.9795 167.101,122.7235 167.565,122.8765 C168.034,123.0235 168.291,123.5265 168.138,123.9955 M163.796,134.5735 C162.934,136.2775 162.005,137.9485 161.017,139.5755 C160.848,139.8485 160.558,140.0015 160.258,140.0015 C160.099,140.0015 159.941,139.9635 159.794,139.8705 C159.373,139.6145 159.242,139.0685 159.493,138.6535 C160.46,137.0635 161.366,135.4365 162.208,133.7705 C162.431,133.3345 162.966,133.1535 163.403,133.3775 C163.84,133.6015 164.015,134.1365 163.796,134.5735 M157.86,144.3435 C156.741,145.8885 155.567,147.3965 154.338,148.8485 C154.163,149.0565 153.912,149.1655 153.655,149.1655 C153.453,149.1715 153.251,149.0995 153.082,148.9585 C152.705,148.6415 152.656,148.0785 152.978,147.7015 C154.18,146.2815 155.326,144.8135 156.413,143.3055 C156.703,142.9065 157.254,142.8145 157.658,143.1035 C158.057,143.3935 158.144,143.9445 157.86,144.3435 M150.472,153.0705 C149.134,154.4245 147.741,155.7295 146.299,156.9805 C146.13,157.1275 145.922,157.1985 145.715,157.1985 C145.469,157.1985 145.224,157.0945 145.049,156.8925 C144.727,156.5215 144.765,155.9595 145.136,155.6425 C146.54,154.4195 147.9,153.1465 149.21,151.8245 C149.554,151.4755 150.117,151.4695 150.466,151.8145 C150.816,152.1575 150.821,152.7205 150.472,153.0705 M98.253,169.7485 C60.55,169.7485 29.99,139.1885 29.99,101.4855 C29.99,63.7825 60.55,33.2225 98.253,33.2225 C135.956,33.2225 166.516,63.7825 166.516,101.4855 C166.516,139.1885 135.951,169.7485 98.253,169.7485 M141.843,160.5575 C140.309,161.6875 138.736,162.7635 137.119,163.7735 C136.972,163.8665 136.808,163.9105 136.65,163.9105 C136.349,163.9105 136.06,163.7625 135.891,163.4895 C135.629,163.0745 135.754,162.5285 136.169,162.2665 C137.748,161.2785 139.287,160.2295 140.784,159.1265 C141.177,158.8315 141.739,158.9195 142.029,159.3125 C142.318,159.7055 142.236,160.2625 141.843,160.5575 M132.155,166.6135 C130.468,167.4925 128.748,168.3065 126.989,169.0545 C126.875,169.1035 126.755,169.1255 126.64,169.1255 C126.29,169.1315 125.963,168.9235 125.82,168.5855 C125.624,168.1315 125.842,167.6135 126.29,167.4165 C128.005,166.6845 129.687,165.8925 131.331,165.0355 C131.768,164.8055 132.303,164.9755 132.532,165.4125 C132.761,165.8485 132.592,166.3845 132.155,166.6135 M121.649,171.0915 C119.846,171.6925 118.017,172.2335 116.16,172.6975 C116.089,172.7135 116.018,172.7245 115.947,172.7245 C115.543,172.7185 115.182,172.4515 115.079,172.0475 C114.959,171.5725 115.248,171.0865 115.729,170.9715 C117.542,170.5185 119.327,169.9935 121.08,169.4045 C121.545,169.2455 122.047,169.4965 122.205,169.9615 C122.364,170.4255 122.112,170.9335 121.649,171.0915 M110.557,173.8715 C108.689,174.1825 106.8,174.4285 104.883,174.6035 C104.856,174.6035 104.828,174.6085 104.801,174.6085 C104.353,174.6035 103.965,174.2535 103.922,173.7895 C103.878,173.2985 104.238,172.8665 104.725,172.8285 C106.592,172.6585 108.438,172.4245 110.256,172.1135 C110.737,172.0305 111.196,172.3585 111.283,172.8445 C111.365,173.3245 111.038,173.7835 110.557,173.8715 M99.176,174.8865 C98.87,174.8925 98.559,174.8925 98.253,174.8925 C96.642,174.8925 95.047,174.8435 93.464,174.7395 C92.972,174.7065 92.601,174.2865 92.634,173.7945 C92.667,173.3035 93.087,172.9315 93.579,172.9645 C95.124,173.0635 96.68,173.1125 98.253,173.1125 C98.553,173.1125 98.854,173.1125 99.154,173.1065 C99.646,173.1015 100.05,173.4945 100.055,173.9865 C100.061,174.4775 99.668,174.8815 99.176,174.8865 M88.784,173.3965 C88.724,173.8435 88.336,174.1605 87.904,174.1605 C87.861,174.1605 87.817,174.1555 87.779,174.1495 C85.879,173.8765 84.005,173.5325 82.154,173.1175 C81.673,173.0085 81.373,172.5385 81.483,172.0585 C81.586,171.5775 82.067,171.2775 82.542,171.3865 C84.344,171.7905 86.179,172.1235 88.03,172.3915 C88.516,172.4565 88.855,172.9095 88.784,173.3965 M77.725,171.0645 C77.605,171.4465 77.255,171.6925 76.879,171.6925 C76.797,171.6925 76.71,171.6815 76.622,171.6545 C74.787,171.0915 72.99,170.4585 71.221,169.7595 C70.768,169.5785 70.539,169.0605 70.719,168.6015 C70.899,168.1485 71.418,167.9245 71.871,168.1045 C73.597,168.7865 75.355,169.4045 77.141,169.9555 C77.61,170.1035 77.873,170.5945 77.725,171.0645 M67.185,167.0335 C67.032,167.3505 66.716,167.5305 66.382,167.5305 C66.246,167.5305 66.115,167.5035 65.989,167.4435 C64.275,166.6025 62.593,165.6965 60.954,164.7235 C60.528,164.4725 60.392,163.9265 60.643,163.5065 C60.894,163.0805 61.441,162.9435 61.861,163.1895 C63.461,164.1345 65.099,165.0185 66.776,165.8435 C67.218,166.0565 67.404,166.5915 67.185,167.0335 M57.388,161.4035 C57.213,161.6495 56.941,161.7805 56.656,161.7805 C56.476,161.7805 56.301,161.7315 56.143,161.6225 C54.581,160.5245 53.063,159.3725 51.594,158.1595 C51.212,157.8485 51.163,157.2855 51.474,156.9095 C51.785,156.5325 52.348,156.4725 52.725,156.7895 C54.161,157.9685 55.641,159.0995 57.17,160.1695 L57.17,160.1645 C57.574,160.4475 57.667,161.0055 57.388,161.4035 M48.58,154.3315 C48.405,154.5115 48.17,154.6045 47.935,154.6045 C47.717,154.5995 47.493,154.5175 47.324,154.3535 C45.947,153.0315 44.626,151.6555 43.359,150.2305 C43.031,149.8645 43.064,149.3015 43.435,148.9745 C43.801,148.6525 44.364,148.6795 44.692,149.0515 C45.925,150.4435 47.22,151.7865 48.558,153.0755 C48.913,153.4145 48.923,153.9825 48.58,154.3315 M40.978,145.9705 C40.819,146.0915 40.629,146.1515 40.443,146.1515 C40.17,146.1615 39.907,146.0365 39.733,145.8065 C38.581,144.2885 37.488,142.7265 36.456,141.1215 C36.189,140.7065 36.309,140.1605 36.724,139.8875 C37.139,139.6195 37.685,139.7395 37.952,140.1555 C38.957,141.7215 40.027,143.2455 41.147,144.7255 C41.442,145.1135 41.366,145.6765 40.978,145.9705 M34.763,136.5615 C34.627,136.6325 34.484,136.6655 34.343,136.6655 C34.021,136.6655 33.714,136.4955 33.556,136.1955 C32.655,134.5195 31.82,132.8095 31.05,131.0625 C30.848,130.6095 31.055,130.0845 31.503,129.8875 C31.951,129.6915 32.475,129.8935 32.677,130.3465 C33.431,132.0505 34.244,133.7215 35.124,135.3545 C35.359,135.7855 35.194,136.3265 34.763,136.5615 M30.083,126.3005 C29.985,126.3325 29.886,126.3495 29.788,126.3495 C29.422,126.3435 29.078,126.1145 28.947,125.7485 C28.319,123.9575 27.762,122.1335 27.271,120.2815 C27.145,119.8065 27.429,119.3215 27.904,119.1955 C28.38,119.0695 28.865,119.3535 28.991,119.8285 C29.466,121.6365 30.012,123.4165 30.629,125.1645 C30.793,125.6285 30.547,126.1365 30.083,126.3005 M26.905,115.4435 C26.479,115.4275 26.108,115.1265 26.031,114.7005 C25.693,112.8385 25.425,110.9495 25.228,109.0375 C25.179,108.5465 25.534,108.1145 26.026,108.0655 C26.512,108.0165 26.948,108.3715 26.998,108.8635 C27.189,110.7255 27.451,112.5655 27.778,114.3895 C27.866,114.8705 27.549,115.3345 27.063,115.4275 C27.008,115.4385 26.954,115.4435 26.905,115.4435 M24.868,103.3315 C24.852,102.7145 24.846,102.1025 24.846,101.4795 C24.846,100.1795 24.879,98.8965 24.944,97.6135 C24.972,97.1215 25.387,96.7445 25.878,96.7725 C26.37,96.7995 26.747,97.2195 26.719,97.7065 C26.653,98.9565 26.621,100.2125 26.621,101.4795 C26.621,102.0805 26.626,102.6865 26.643,103.2815 C26.653,103.7735 26.266,104.1775 25.775,104.1945 L25.753,104.1945 C25.272,104.1995 24.879,103.8115 24.868,103.3315 M25.463,91.9235 C25.714,90.0175 26.031,88.1385 26.424,86.2875 C26.523,85.8065 26.992,85.5005 27.478,85.5985 C27.959,85.6975 28.265,86.1725 28.166,86.6535 C27.784,88.4605 27.473,90.2955 27.233,92.1525 C27.172,92.6005 26.79,92.9275 26.353,92.9275 C26.304,92.9225 26.266,92.9225 26.228,92.9165 C25.742,92.8515 25.398,92.4085 25.463,91.9235 M27.817,80.7395 C28.358,78.8985 28.969,77.0965 29.646,75.3165 C29.821,74.8575 30.335,74.6275 30.793,74.8025 C31.246,74.9775 31.481,75.4905 31.306,75.9495 C30.646,77.6805 30.05,79.4445 29.526,81.2355 C29.411,81.6235 29.056,81.8745 28.669,81.8745 C28.581,81.8805 28.5,81.8695 28.418,81.8425 C27.948,81.6995 27.675,81.2085 27.817,80.7395 M31.891,70.0565 C32.71,68.3315 33.594,66.6385 34.545,64.9835 C34.791,64.5575 35.331,64.4105 35.757,64.6555 C36.183,64.9015 36.331,65.4425 36.085,65.8735 C35.162,67.4795 34.294,69.1345 33.496,70.8215 C33.343,71.1435 33.021,71.3295 32.688,71.3295 C32.563,71.3295 32.437,71.2965 32.311,71.2415 C31.869,71.0295 31.678,70.4995 31.891,70.0565 M37.581,60.1395 C38.657,58.5615 39.793,57.0275 40.989,55.5475 C41.295,55.1645 41.857,55.0995 42.239,55.4105 C42.622,55.7165 42.682,56.2795 42.376,56.6605 C41.213,58.1085 40.104,59.6045 39.056,61.1445 C38.886,61.3955 38.602,61.5325 38.318,61.5325 C38.144,61.5265 37.969,61.4775 37.816,61.3735 C37.412,61.0955 37.303,60.5435 37.581,60.1395 M44.746,51.2275 C46.051,49.8405 47.411,48.4965 48.82,47.2135 C49.18,46.8805 49.743,46.9075 50.076,47.2685 C50.409,47.6285 50.382,48.1965 50.022,48.5245 C48.645,49.7805 47.318,51.0855 46.046,52.4395 C45.871,52.6255 45.636,52.7185 45.396,52.7185 C45.172,52.7235 44.954,52.6415 44.784,52.4835 C44.424,52.1505 44.407,51.5875 44.746,51.2275 M53.189,43.5275 C54.691,42.3585 56.241,41.2445 57.831,40.1905 C58.24,39.9235 58.792,40.0325 59.065,40.4415 C59.333,40.8515 59.223,41.4035 58.814,41.6705 C57.257,42.6975 55.745,43.7835 54.281,44.9255 C54.123,45.0515 53.926,45.1115 53.735,45.1115 C53.473,45.1215 53.211,45.0015 53.036,44.7725 C52.73,44.3845 52.801,43.8275 53.189,43.5275 M62.718,37.2255 C64.384,36.3025 66.082,35.4455 67.824,34.6535 C68.272,34.4505 68.802,34.6475 69.004,35.0905 C69.206,35.5375 69.009,36.0625 68.562,36.2695 C66.863,37.0455 65.203,37.8805 63.581,38.7815 C63.444,38.8585 63.297,38.8965 63.15,38.8965 C62.838,38.8965 62.538,38.7325 62.374,38.4375 C62.134,38.0065 62.292,37.4655 62.718,37.2255 M73.11,32.4905 C74.891,31.8405 76.71,31.2565 78.555,30.7425 C79.025,30.6065 79.516,30.8905 79.653,31.3655 C79.784,31.8355 79.505,32.3265 79.036,32.4575 C77.234,32.9605 75.464,33.5285 73.722,34.1615 C73.624,34.1995 73.52,34.2165 73.417,34.2165 C73.056,34.2165 72.717,33.9925 72.581,33.6325 C72.412,33.1735 72.647,32.6595 73.11,32.4905 M84.126,29.4325 C85.983,29.0725 87.872,28.7775 89.777,28.5585 C90.264,28.5045 90.706,28.8535 90.761,29.3445 C90.815,29.8305 90.466,30.2735 89.98,30.3275 C88.118,30.5405 86.283,30.8305 84.464,31.1795 C84.404,31.1905 84.349,31.1965 84.295,31.1965 C83.874,31.1905 83.503,30.8955 83.421,30.4755 C83.328,29.9945 83.645,29.5255 84.126,29.4325 M95.479,28.1215 C96.397,28.0895 97.325,28.0725 98.253,28.0725 C99.236,28.0725 100.219,28.0945 101.191,28.1325 C101.683,28.1495 102.065,28.5645 102.043,29.0555 C102.022,29.5365 101.628,29.9075 101.153,29.9075 L101.126,29.9075 C100.175,29.8695 99.214,29.8525 98.253,29.8525 C97.347,29.8525 96.44,29.8695 95.545,29.9025 C95.053,29.9185 94.638,29.5355 94.622,29.0445 C94.6,28.5525 94.987,28.1375 95.479,28.1215 M105.91,29.3555 C105.964,28.8695 106.406,28.5205 106.893,28.5745 C108.798,28.7995 110.683,29.0935 112.545,29.4595 C113.026,29.5525 113.337,30.0225 113.244,30.5025 C113.156,30.9235 112.785,31.2185 112.37,31.2185 C112.316,31.2235 112.255,31.2185 112.201,31.2075 C110.388,30.8465 108.547,30.5575 106.691,30.3395 C106.205,30.2845 105.855,29.8425 105.91,29.3555 M117.012,31.4045 C117.149,30.9285 117.634,30.6555 118.109,30.7865 C119.955,31.3055 121.769,31.8895 123.549,32.5455 C124.007,32.7095 124.248,33.2225 124.078,33.6865 C123.942,34.0475 123.603,34.2705 123.243,34.2705 C123.139,34.2705 123.035,34.2545 122.937,34.2165 C121.195,33.5775 119.425,33.0035 117.629,32.5015 C117.159,32.3705 116.881,31.8795 117.012,31.4045 M127.661,35.1665 C127.863,34.7185 128.393,34.5275 128.84,34.7295 C130.577,35.5275 132.281,36.3955 133.946,37.3185 C134.373,37.5585 134.525,38.0985 134.291,38.5305 C134.127,38.8255 133.821,38.9895 133.51,38.9895 C133.362,38.9835 133.215,38.9455 133.078,38.8745 C131.456,37.9685 129.796,37.1275 128.098,36.3455 C127.65,36.1385 127.453,35.6145 127.661,35.1665 M137.594,40.5405 C137.868,40.1305 138.419,40.0215 138.829,40.2945 C140.418,41.3485 141.969,42.4685 143.465,43.6415 C143.853,43.9425 143.919,44.5045 143.618,44.8925 C143.443,45.1165 143.181,45.2315 142.919,45.2315 C142.728,45.2315 142.531,45.1715 142.373,45.0455 C140.909,43.8985 139.397,42.8065 137.846,41.7745 C137.436,41.5015 137.321,40.9495 137.594,40.5405 M146.572,47.4045 C146.905,47.0445 147.468,47.0165 147.829,47.3495 C149.237,48.6385 150.592,49.9825 151.892,51.3745 C152.225,51.7355 152.208,52.2975 151.848,52.6305 C151.673,52.7895 151.46,52.8715 151.242,52.8715 C151.007,52.8605 150.772,52.7675 150.592,52.5815 C149.319,51.2215 147.998,49.9115 146.627,48.6555 L146.627,48.6605 C146.267,48.3275 146.239,47.7645 146.572,47.4045 M154.387,55.5525 C154.77,55.2465 155.332,55.3065 155.638,55.6945 C156.828,57.1795 157.959,58.7145 159.029,60.2925 C159.302,60.6975 159.198,61.2535 158.794,61.5275 C158.641,61.6305 158.466,61.6795 158.292,61.6795 C158.008,61.6795 157.729,61.5435 157.555,61.2925 C156.511,59.7525 155.403,58.2555 154.245,56.8025 C153.94,56.4205 154,55.8585 154.387,55.5525 M160.842,64.8145 C161.268,64.5735 161.814,64.7215 162.054,65.1475 C162.999,66.7965 163.879,68.4895 164.692,70.2155 C164.9,70.6575 164.709,71.1875 164.266,71.4005 C164.146,71.4605 164.015,71.4885 163.889,71.4885 C163.551,71.4825 163.234,71.2915 163.081,70.9745 C162.284,69.2865 161.426,67.6375 160.509,66.0265 C160.263,65.6005 160.416,65.0545 160.842,64.8145 M165.774,74.9555 C166.232,74.7805 166.746,75.0095 166.92,75.4745 C167.592,77.2495 168.198,79.0565 168.734,80.8975 C168.87,81.3665 168.602,81.8635 168.127,82.0005 C168.045,82.0225 167.958,82.0325 167.876,82.0325 C167.499,82.0325 167.144,81.7815 167.029,81.3945 C166.505,79.6025 165.916,77.8335 165.26,76.1025 C165.086,75.6435 165.315,75.1305 165.774,74.9555 M170.12,86.4405 C170.508,88.2965 170.825,90.1755 171.065,92.0815 C171.125,92.5675 170.781,93.0155 170.295,93.0755 C170.257,93.0805 170.219,93.0805 170.18,93.0805 C169.744,93.0865 169.361,92.7585 169.301,92.3105 C169.067,90.4535 168.755,88.6185 168.379,86.8055 C168.275,86.3255 168.586,85.8555 169.067,85.7525 C169.547,85.6535 170.017,85.9595 170.12,86.4405 M188.683,85.5175 C190.113,83.7975 190.697,81.9505 190.321,80.3235 C189.949,78.6965 188.617,77.2925 186.574,76.3695 C176.215,71.6785 170.027,58.8895 172.791,47.8575 C173.326,45.7065 173.064,43.8115 172.048,42.5115 C171.049,41.2335 169.317,40.5295 167.171,40.5295 C167.089,40.5295 167.008,40.5295 166.926,40.5345 C166.756,40.5405 166.582,40.5405 166.401,40.5405 C155.081,40.5405 144.421,31.8795 142.138,20.8255 C141.488,17.6695 139.637,15.8615 137.059,15.8615 C135.989,15.8615 134.848,16.1675 133.673,16.7685 C130.419,18.4285 126.667,19.3075 122.817,19.3075 C114.959,19.3075 107.28,15.6545 102.786,9.7675 C101.443,7.9755 99.777,6.9985 98.111,6.9985 C96.44,6.9985 94.775,7.9815 93.42,9.7675 C88.926,15.6925 81.231,19.3675 73.34,19.3675 C69.523,19.3675 65.793,18.4995 62.56,16.8615 C61.391,16.2655 60.255,15.9655 59.191,15.9655 C56.602,15.9655 54.751,17.7785 54.106,20.9465 C51.856,32.0425 41.191,40.7365 29.832,40.7365 C29.679,40.7365 29.526,40.7365 29.373,40.7315 L29.144,40.7315 C26.998,40.7315 25.261,41.4355 24.262,42.7185 C23.246,44.0245 22.984,45.9295 23.53,48.0815 C26.326,59.1075 20.182,71.9135 9.834,76.6325 C7.796,77.5605 6.475,78.9695 6.104,80.5965 C5.733,82.2245 6.322,84.0705 7.758,85.7905 C15.06,94.5065 15.082,108.7155 7.808,117.4585 C6.377,119.1785 5.793,121.0245 6.164,122.6525 C6.535,124.2795 7.868,125.6835 9.91,126.6115 C20.27,131.2975 26.457,144.0815 23.693,155.1175 C23.158,157.2695 23.421,159.1705 24.437,160.4695 C25.436,161.7475 27.167,162.4525 29.313,162.4525 L29.477,162.4525 L29.575,162.4525 C29.728,162.4475 29.903,162.4475 30.078,162.4475 C41.404,162.4475 52.058,171.1085 54.341,182.1615 C54.991,185.3175 56.842,187.1255 59.42,187.1255 C60.484,187.1255 61.626,186.8195 62.811,186.2185 C66.055,184.5585 69.807,183.6795 73.662,183.6795 C81.526,183.6795 89.199,187.3325 93.693,193.2195 C95.053,195.0005 96.718,195.9775 98.384,195.9775 C100.055,195.9775 101.726,194.9945 103.081,193.2035 C107.575,187.2835 115.275,183.6025 123.167,183.6025 C126.989,183.6025 130.713,184.4705 133.946,186.1095 C135.115,186.7045 136.251,187.0055 137.316,187.0055 C139.904,187.0055 141.756,185.1865 142.395,182.0245 C144.65,170.9275 155.31,162.2335 166.664,162.2335 L166.937,162.2395 L167.1,162.2395 L167.362,162.2445 C169.498,162.2445 171.234,161.5345 172.234,160.2515 C173.25,158.9465 173.506,157.0455 172.965,154.8945 C170.17,143.8685 176.313,131.0625 186.662,126.3385 C188.699,125.4095 190.026,124.0015 190.392,122.3735 C190.763,120.7465 190.173,118.9005 188.732,117.1805 C181.425,108.4595 181.403,94.2545 188.683,85.5175"/>
            <path d="M143.5035,146.7297 C131.9205,158.3077 115.9305,165.4727 98.2535,165.4727 C80.5755,165.4727 64.5865,158.3127 53.0035,146.7297 C41.4145,135.1467 34.2555,119.1517 34.2555,101.4797 C34.2555,83.8077 41.4205,67.8127 53.0035,56.2297 C64.5865,44.6467 80.5755,37.4877 98.2535,37.4817 C115.9245,37.4877 131.9205,44.6467 143.5035,56.2297 C155.0865,67.8127 162.2515,83.8077 162.2515,101.4797 C162.2455,119.1517 155.0865,135.1467 143.5035,146.7297 M98.2535,35.6687 C61.9045,35.6687 32.4365,65.1367 32.4365,101.4847 C32.4365,137.8337 61.9045,167.2957 98.2535,167.3017 C134.6075,167.3017 164.0755,137.8337 164.0755,101.4847 C164.0695,65.1367 134.6015,35.6687 98.2535,35.6687"/>
            <path d="M53.8438,92.9768 L46.5918,90.1758 C44.9748,89.5528 43.2218,88.9408 41.3268,88.3408 L41.3598,88.2588 L55.4828,88.7498 L56.3068,86.5928 L45.6088,77.3098 L45.6418,77.2268 C45.8818,77.3528 46.5918,77.6638 47.7658,78.1618 C48.9398,78.6578 49.8958,79.0518 50.6378,79.3348 L58.0108,82.1858 L58.9178,79.8428 L44.0088,74.0818 L42.6768,77.5278 L52.8878,86.3748 L52.8658,86.4348 L39.4048,85.9928 L38.0778,89.4278 L52.9868,95.1888 L53.8438,92.9768 Z"/>
            <path d="M54.5265,63.8206 C55.5755,62.6786 56.7385,62.1656 58.0165,62.2756 C59.2945,62.3836 60.6535,63.1056 62.0955,64.4326 C63.5595,65.7806 64.3945,67.0866 64.5965,68.3476 C64.7985,69.6146 64.3785,70.8166 63.3245,71.9576 C62.2705,73.1046 61.0965,73.6236 59.8135,73.5196 C58.5245,73.4156 57.1585,72.6946 55.7115,71.3626 C54.2705,70.0356 53.4455,68.7356 53.2375,67.4576 C53.0355,66.1856 53.4675,64.9726 54.5265,63.8206 M53.8115,73.3936 C55.7505,75.1796 57.6835,76.0866 59.6165,76.1026 C61.5445,76.1246 63.3295,75.2446 64.9625,73.4696 C66.5795,71.7166 67.2945,69.8716 67.1145,67.9386 C66.9345,65.9996 65.8855,64.1536 63.9745,62.3896 C62.0575,60.6206 60.1295,59.7306 58.1915,59.7136 C56.2525,59.6976 54.4835,60.5606 52.8725,62.3076 C51.2395,64.0826 50.5025,65.9236 50.6605,67.8396 C50.8185,69.7566 51.8725,71.6086 53.8115,73.3936"/>
            <path d="M73.127,65.9885 L69.255,58.6375 C68.731,57.6445 68.108,56.5735 67.387,55.4215 L67.011,54.8205 L67.087,54.7825 L79.975,62.3955 L82.809,60.9045 L75.372,46.7495 L73.252,47.8635 L77.152,55.2745 C77.425,55.7985 77.829,56.5135 78.358,57.4255 C78.888,58.3375 79.194,58.8625 79.287,59.0035 L79.227,59.0365 L66.388,51.4725 L63.581,52.9475 L71.024,67.0915 L73.127,65.9885 Z"/>
            <polygon points="93.9552 58.7693 93.5352 56.5903 87.2272 57.8183 86.2662 52.8933 92.1812 51.7403 91.7602 49.5943 85.8462 50.7473 85.0162 46.4763 91.3232 45.2473 90.9022 43.0793 82.0282 44.8053 85.0812 60.4953"/>
            <polygon points="98.8102 58.8674 101.4322 59.0094 101.7652 52.8224 107.6082 43.3364 104.7682 43.1834 100.6022 50.2614 97.2152 42.7794 94.3762 42.6264 99.1382 52.7674"/>
            <path d="M116.7442,55.1267 L119.1522,56.2127 C120.2062,56.6937 120.9112,57.2297 121.2662,57.8297 C121.6212,58.4307 121.6262,59.1077 121.2822,59.8667 C120.9112,60.6907 120.3872,61.1777 119.7042,61.3307 C119.0212,61.4827 118.1812,61.3357 117.1862,60.8827 L114.6582,59.7357 L116.7442,55.1267 Z M119.4422,49.1737 L121.5062,50.1077 C122.5822,50.5937 123.2972,51.1017 123.6522,51.6317 C124.0072,52.1617 124.0352,52.7677 123.7232,53.4497 C123.3792,54.2097 122.9102,54.6407 122.3092,54.7497 C121.7082,54.8587 120.9052,54.6897 119.9112,54.2367 L117.6182,53.1987 L119.4422,49.1737 Z M120.9492,63.6567 C122.1942,63.3287 123.1172,62.5157 123.7072,61.2047 C124.1442,60.2377 124.2532,59.3587 124.0292,58.5727 C123.8002,57.7857 123.2212,57.0647 122.2872,56.4097 L122.3312,56.3117 C123.2212,56.5407 124.0132,56.4697 124.7062,56.1047 C125.4002,55.7377 125.9402,55.1317 126.3232,54.2797 C126.8902,53.0187 126.8632,51.8937 126.2352,50.9047 C125.6072,49.9167 124.2912,48.9667 122.2872,48.0597 L117.9622,46.1047 L111.3762,60.6637 L116.6352,63.0447 C118.2622,63.7767 119.6992,63.9837 120.9492,63.6567 L120.9492,63.6567 Z"/>
            <path d="M133.3678,60.9153 C134.3458,60.3583 135.2078,59.8013 135.9398,59.2493 C135.8088,59.5173 135.6068,59.9543 135.3448,60.5553 C135.0828,61.1553 134.8968,61.5983 134.7878,61.8933 L133.0838,66.1683 L129.5558,63.1323 L133.3678,60.9153 Z M123.4228,66.6763 L127.5028,64.3333 L132.1338,68.3203 L130.4458,72.7273 L132.5538,74.5403 L138.4958,58.4743 L136.3388,56.6173 L121.3368,64.8803 L123.4228,66.6763 Z"/>
            <path d="M134.6402,74.7918 C134.1432,76.6218 134.5412,78.5108 135.8252,80.4658 C136.6992,81.7928 137.6762,82.8528 138.7632,83.6388 L140.6362,82.4098 C140.0842,81.9508 139.5772,81.4928 139.1182,81.0398 C138.6542,80.5808 138.2392,80.0728 137.8682,79.5048 C137.0102,78.1938 136.7702,76.9218 137.1582,75.6768 C137.5452,74.4368 138.5562,73.2738 140.1942,72.1978 C141.7612,71.1658 143.2242,70.7178 144.5842,70.8538 C145.9442,70.9908 147.0362,71.6848 147.8612,72.9408 C148.2272,73.4978 148.4942,74.0768 148.6532,74.6828 C148.8222,75.2888 148.9482,75.8898 149.0302,76.4788 L151.3672,76.0698 C151.1762,74.5348 150.6352,73.0878 149.7402,71.7228 C148.8882,70.4228 147.8672,69.4788 146.6822,68.8778 C145.4962,68.2768 144.2132,68.0688 142.8372,68.2438 C141.4612,68.4188 140.0792,68.9648 138.6922,69.8768 C136.4862,71.3298 135.1372,72.9678 134.6402,74.7918"/>
            <path d="M139.7296,87.8547 L145.4316,86.0577 L147.0916,87.1497 L141.6956,94.1127 L142.6076,97.0017 L149.3136,88.4167 C151.0016,89.1487 153.8356,90.3557 157.8006,92.0317 L156.9046,89.1977 L150.7396,86.6147 C149.7566,86.1837 148.7406,85.7627 147.6916,85.3427 L154.9716,83.0487 L154.1856,80.5587 L138.9436,85.3647 L139.7296,87.8547 Z"/>
            <path d="M52.4132,121.9807 L50.3872,122.9307 L51.7582,125.8137 L48.0392,127.5887 C47.4492,126.8407 46.9792,126.1037 46.6302,125.3667 C45.9362,123.9087 45.8652,122.5707 46.4122,121.3577 C46.9572,120.1457 48.1152,119.1187 49.8792,118.2777 C51.5562,117.4807 53.0852,117.2787 54.4612,117.6827 C55.8372,118.0867 56.8802,119.0257 57.5852,120.5117 C58.1202,121.6417 58.3882,122.8977 58.3882,124.2847 L60.7302,124.1487 C60.6922,122.5757 60.3262,121.0637 59.6332,119.6107 C58.5572,117.3497 57.0602,115.8917 55.1332,115.2307 C53.2052,114.5697 51.0802,114.7887 48.7602,115.8967 C46.4002,117.0217 44.8502,118.4587 44.1012,120.2167 C43.3532,121.9747 43.4792,123.9087 44.4842,126.0107 C44.9102,126.9067 45.3632,127.7097 45.8492,128.4247 C46.3352,129.1397 46.9192,129.8447 47.6022,130.5487 L54.8492,127.0977 L52.4132,121.9807 Z"/>
            <path d="M69.2989,132.8098 L61.9369,139.7128 C60.0529,141.4818 58.2949,141.4978 56.6729,139.7678 C55.8379,138.8768 55.4439,137.9978 55.4989,137.1408 C55.5529,136.2778 56.0609,135.3978 57.0229,134.4968 L64.3999,127.5838 L62.6689,125.7378 L55.1549,132.7828 C53.8169,134.0388 53.1229,135.4148 53.0849,136.9058 C53.0469,138.3958 53.6799,139.8378 54.9859,141.2308 C55.8649,142.1698 56.7989,142.8088 57.7759,143.1588 C58.7539,143.5078 59.7359,143.5568 60.7139,143.3058 C61.6969,143.0598 62.6139,142.5308 63.4769,141.7228 L71.0249,134.6498 L69.2989,132.8098 Z"/>
            <path d="M76.1524,141.9133 C76.0104,142.5523 75.9124,143.0213 75.8624,143.3283 L74.9944,147.8273 L71.0794,145.6383 L74.3284,142.6833 C75.1644,141.9353 75.8844,141.2143 76.4904,140.5263 C76.4094,140.8103 76.2944,141.2743 76.1524,141.9133 L76.1524,141.9133 Z M63.5374,149.0723 L65.8534,150.3723 L69.3374,147.2383 L74.4754,150.1163 L73.6454,154.7413 L75.9834,156.0463 L78.8004,139.2263 L76.4094,137.8883 L63.5374,149.0723 Z"/>
            <path d="M90.9957,148.2971 C90.8097,149.1661 90.4117,149.7661 89.7997,150.0941 C89.1877,150.4271 88.3087,150.4651 87.1617,150.2191 L85.4527,149.8481 L86.5557,144.7481 L88.1827,145.0971 C89.3027,145.3381 90.0947,145.7141 90.5697,146.2161 C91.0447,146.7191 91.1867,147.4121 90.9957,148.2971 M84.5627,142.0501 L81.1877,157.6741 L83.6507,158.2031 L84.9987,151.9621 L87.4237,152.4911 L89.6797,159.5081 L92.4807,160.1151 L89.7237,152.2841 C91.8527,151.8741 93.1247,150.7001 93.5457,148.7561 C93.8737,147.2271 93.6547,145.9871 92.8847,145.0311 C92.1147,144.0761 90.7607,143.3881 88.8167,142.9671 L84.5627,142.0501 Z"/>
            <path d="M100.4322,153.3049 L101.4702,149.0399 C101.7482,147.9529 101.9392,146.9539 102.0542,146.0419 C102.1472,146.3309 102.3102,146.7739 102.5512,147.3859 C102.7912,147.9969 102.9722,148.4389 103.1022,148.7229 L104.9052,152.9389 L100.4322,153.3049 Z M100.5032,143.9229 L96.1072,160.3989 L98.7502,160.1749 L99.8802,155.6259 L105.7512,155.1349 L107.6572,159.4269 L110.3162,159.2029 L103.2332,143.6939 L100.5032,143.9229 Z"/>
            <path d="M119.0924,138.7459 L122.4844,146.4019 C122.7184,146.9429 123.0734,147.6859 123.5374,148.6299 C124.0024,149.5749 124.2754,150.1209 124.3574,150.2689 L124.2974,150.2959 L112.2604,141.7709 L109.4704,143.0109 L115.9414,157.6249 L118.0334,156.6969 L114.6694,149.0999 C114.2164,148.0789 113.6694,146.9649 113.0304,145.7639 L112.6924,145.1359 L112.7684,145.1019 L124.8544,153.6819 L127.6774,152.4319 L121.2004,137.8119 L119.0924,138.7459 Z"/>
            <polygon points="132.1881 131.2698 130.7131 129.5828 121.9871 137.1898 123.4611 138.8768 126.8751 135.9008 135.9071 146.2608 137.8021 144.6058 128.7751 134.2458"/>
            <polygon points="144.1641 134.2786 140.0571 131.3956 143.3941 126.6446 141.6031 125.3886 138.2661 130.1396 134.7061 127.6376 138.2661 122.5706 136.4581 121.3036 131.4511 128.4296 144.5301 137.6156 149.5381 130.4886 147.7251 129.2106"/>
            <polygon points="151.2198 121.9368 146.5558 120.0858 148.6968 114.6898 146.6648 113.8818 144.5248 119.2768 140.4778 117.6718 142.7608 111.9158 140.7068 111.1028 137.4958 119.2008 152.3558 125.0938 155.5668 116.9948 153.5028 116.1808"/>
            <path d="M113.7462,104.5925 C112.1842,106.8805 109.7812,108.0275 106.5322,108.0275 C103.3862,108.0275 101.0112,106.8475 99.4112,104.4835 C97.8102,102.1185 97.0142,98.6295 97.0142,94.0145 C97.0142,89.1975 97.7892,85.6485 99.3452,83.3655 C100.9022,81.0825 103.2932,79.9415 106.5322,79.9415 C109.6832,79.9415 112.0592,81.1375 113.6692,83.5245 C115.2812,85.9105 116.0892,89.4055 116.0892,94.0095 C116.0892,98.7765 115.3082,102.3045 113.7462,104.5925 L113.7462,104.5925 Z M114.8002,123.4825 C114.1662,123.9895 113.2872,124.2415 112.1572,124.2415 C111.1192,124.2415 110.1962,124.0445 109.3992,123.6565 L109.3992,121.7345 C110.0602,122.0295 110.6112,122.2375 111.0702,122.3575 C111.5232,122.4775 111.9442,122.5375 112.3212,122.5375 C112.7742,122.5375 113.1232,122.4495 113.3642,122.2755 C113.6042,122.1005 113.7242,121.8435 113.7242,121.4995 C113.7242,121.3085 113.6692,121.1395 113.5662,120.9915 C113.4562,120.8445 113.3042,120.7025 113.0962,120.5605 C112.8892,120.4245 112.4682,120.2055 111.8342,119.8995 C111.2392,119.6215 110.7912,119.3535 110.4962,119.0915 C110.2022,118.8355 109.9612,118.5345 109.7812,118.1905 C109.6012,117.8465 109.5142,117.4475 109.5142,116.9885 C109.5142,116.1265 109.8082,115.4485 110.3932,114.9575 C110.9772,114.4665 111.7862,114.2205 112.8182,114.2205 C113.3262,114.2205 113.8062,114.2805 114.2702,114.4005 C114.7342,114.5205 115.2092,114.6905 115.7122,114.9085 L115.0462,116.5135 C114.5272,116.3005 114.0962,116.1535 113.7572,116.0665 C113.4182,115.9845 113.0852,115.9405 112.7522,115.9405 C112.3592,115.9405 112.0592,116.0335 111.8512,116.2135 C111.6432,116.3935 111.5392,116.6345 111.5392,116.9285 C111.5392,117.1095 111.5832,117.2675 111.6652,117.4045 C111.7472,117.5405 111.8842,117.6715 112.0692,117.7975 C112.2552,117.9235 112.6922,118.1525 113.3802,118.4795 C114.2922,118.9165 114.9142,119.3535 115.2532,119.7905 C115.5812,120.2275 115.7502,120.7685 115.7502,121.4015 C115.7502,122.2805 115.4332,122.9745 114.8002,123.4825 L114.8002,123.4825 Z M105.2652,120.3145 L105.2652,124.1105 L103.2122,124.1105 L103.2122,120.3855 L99.9792,114.3675 L102.2182,114.3675 L104.2382,118.3765 L106.2702,114.3625 L108.4982,114.3625 L105.2652,120.3145 Z M97.4772,124.1105 L96.7732,121.7895 L93.2182,121.7895 L92.5142,124.1105 L90.2862,124.1105 L93.7262,114.3235 L96.2542,114.3235 L99.7052,124.1105 L97.4772,124.1105 Z M87.8502,122.8265 C86.9382,123.6785 85.6162,124.1045 83.8912,124.1045 L81.1332,124.1045 L81.1332,114.3565 L84.1912,114.3565 C85.7802,114.3565 87.0192,114.7775 87.8992,115.6185 C88.7782,116.4595 89.2212,117.6335 89.2212,119.1405 C89.2212,120.7465 88.7622,121.9745 87.8502,122.8265 L87.8502,122.8265 Z M76.7972,101.6435 C77.8562,102.1785 79.0192,102.6155 80.2862,102.9485 C81.5532,103.2815 82.8092,103.4515 84.0552,103.4515 C85.9602,103.4515 87.3642,103.1295 88.2702,102.4795 C89.1772,101.8345 89.6362,100.7915 89.6362,99.3615 C89.6362,98.0775 89.1112,97.1715 88.0682,96.6355 C87.0252,96.1005 85.3542,95.8335 83.0662,95.8335 L80.9962,95.8335 L80.9962,91.4095 L83.1042,91.4095 C85.2182,91.4095 86.7632,91.1315 87.7412,90.5795 C88.7182,90.0285 89.2042,89.0775 89.2042,87.7345 C89.2042,85.6705 87.9102,84.6375 85.3212,84.6375 C84.4262,84.6375 83.5142,84.7855 82.5852,85.0855 C81.6572,85.3855 80.6302,85.8995 79.4952,86.6365 L76.8242,82.6605 C79.3142,80.8695 82.2802,79.9745 85.7252,79.9745 C88.5492,79.9745 90.7822,80.5475 92.4152,81.6895 C94.0642,82.8355 94.8842,84.4255 94.8842,86.4675 C94.8842,88.1715 94.3652,89.6235 93.3322,90.8145 C92.3012,92.0105 90.8482,92.8295 88.9862,93.2775 L88.9862,93.3915 C91.1862,93.6655 92.8572,94.3365 93.9882,95.3965 C95.1192,96.4615 95.6862,97.8915 95.6862,99.6995 C95.6862,102.3265 94.7362,104.3685 92.8302,105.8325 C90.9242,107.2955 88.2052,108.0275 84.6712,108.0275 C81.7112,108.0275 79.0852,107.5355 76.7972,106.5525 L76.7972,101.6435 Z M97.3142,65.7375 C77.1132,65.7375 60.7362,82.1145 60.7362,102.3155 C60.7362,122.5155 77.1132,138.8935 97.3142,138.8935 C117.5142,138.8935 133.8912,122.5155 133.8912,102.3155 C133.8912,82.1145 117.5142,65.7375 97.3142,65.7375 L97.3142,65.7375 Z"/>
            <path d="M106.5265,84.6052 C105.1725,84.6052 104.2005,85.3372 103.6155,86.8002 C103.0375,88.2582 102.7425,90.6612 102.7425,94.0092 C102.7425,97.3562 103.0315,99.7542 103.6105,101.2072 C104.1895,102.6542 105.1615,103.3802 106.5325,103.3802 C107.8755,103.3802 108.8475,102.6482 109.4435,101.1792 C110.0385,99.7102 110.3385,97.3242 110.3385,94.0142 C110.3385,90.6672 110.0385,88.2642 109.4325,86.8002 C108.8255,85.3372 107.8595,84.6052 106.5265,84.6052"/>
            <path d="M84.3004,116.0554 L83.2024,116.0554 L83.2024,122.4014 L84.0874,122.4014 C86.0804,122.4014 87.0744,121.3304 87.0744,119.1954 C87.0744,117.1034 86.1514,116.0554 84.3004,116.0554"/>
            <path d="M95.004,115.8313 C94.857,116.3993 94.436,117.8083 93.742,120.0533 L96.282,120.0533 C95.627,117.9503 95.26,116.7603 95.179,116.4863 C95.097,116.2133 95.037,115.9953 95.004,115.8313"/>
        </g>
    </g>
<def><style type="text/css">        #color-1 {
            fill: #1dcef9 !important;
        }
        #color-2 {
            fill: #9D9D9D !important;
        }
        #color-3 {
            fill: #FFFFFF !important;
        }</style></def></svg>
